<svg version="1.1" id="Layer_1" xmlns="http://www.w3.org/2000/svg" xmlns:xlink="http://www.w3.org/1999/xlink" x="0px" y="0px"
	 width="100%" viewBox="0 0 512 512" enable-background="new 0 0 512 512" xml:space="preserve">
<path fill="#000000" opacity="1.000000" stroke="none" 
	d="
M240.000000,513.000000 
	C160.372055,513.000000 80.744125,513.000000 1.058093,513.000000 
	C1.058093,342.455048 1.058093,171.910065 1.058093,1.000000 
	C50.353626,1.000000 99.708153,1.000000 149.214233,1.209618 
	C148.260529,1.747512 147.168457,2.131618 146.048080,2.395660 
	C130.240997,6.120939 117.124878,19.887537 116.470062,34.416348 
	C115.404480,58.059196 116.035858,81.729233 116.095901,105.388573 
	C116.106041,109.381851 117.703552,111.843559 121.988182,111.674713 
	C125.621704,111.531532 126.520790,113.459541 126.407669,116.664230 
	C126.266685,120.658211 126.018112,124.703842 126.477135,128.650284 
	C127.130539,134.267899 124.871864,137.898254 120.548187,141.287994 
	C102.544525,155.402756 87.957893,172.636475 75.552147,191.780441 
	C74.782890,192.967514 74.435379,194.628769 72.623871,194.756042 
	C71.467766,194.096451 71.673203,192.994568 71.671577,192.059509 
	C71.643257,175.729813 71.692253,159.399841 71.610847,143.070496 
	C71.594742,139.838333 72.931244,138.753815 76.078773,138.638367 
	C82.185295,138.414337 83.500641,137.005661 83.599876,131.266785 
	C83.680519,126.602463 83.715050,121.933350 83.602669,117.270401 
	C83.149437,98.465790 84.835922,79.613319 82.677635,60.854469 
	C80.507843,41.995655 63.788109,27.810658 44.300358,28.687492 
	C21.035189,29.734297 7.550615,47.132004 7.595057,67.104408 
	C7.641834,88.126526 24.992977,104.400581 46.179050,104.196449 
	C50.771629,104.152199 51.502796,105.835854 51.425278,109.650093 
	C51.276340,116.978371 51.361515,124.312965 51.448025,131.643768 
	C51.488071,135.037537 52.396408,138.418320 56.414604,138.498581 
	C61.891567,138.607971 62.435635,141.671600 62.412563,146.032639 
	C62.300606,167.194321 62.299610,188.357208 62.410049,209.518890 
	C62.432232,213.769302 61.755703,217.688797 60.074028,221.617569 
	C50.145611,244.812592 44.626789,269.109070 43.503418,294.255066 
	C42.084858,326.008636 48.113415,356.522858 60.594143,385.743530 
	C61.801628,388.570557 62.399235,391.367889 62.387741,394.435516 
	C62.325920,410.931793 62.257740,427.429596 62.410362,443.924805 
	C62.582588,462.539093 76.433304,477.070312 94.932182,477.749847 
	C106.747620,478.183868 118.591797,478.059692 130.418030,477.870056 
	C135.459579,477.789185 139.800201,479.010254 144.079498,481.662384 
	C167.441589,496.141205 192.782562,505.321625 219.887299,509.864075 
	C226.583099,510.986206 233.522156,510.540771 240.000000,513.000000 
z"/>
<path fill="#000000" opacity="1.000000" stroke="none" 
	d="
M263.468658,513.000000 
	C270.159241,510.582275 277.734497,510.979279 285.090271,509.877563 
	C307.556335,506.512604 328.829437,499.543427 348.868805,489.140503 
	C381.102753,472.406982 407.447906,448.910828 427.516266,418.488129 
	C445.413849,391.356171 456.536041,361.736053 460.614868,329.494110 
	C461.605591,321.662598 461.482635,321.638885 469.284760,321.626892 
	C476.446320,321.615875 483.608185,321.669861 490.769318,321.614655 
	C501.221954,321.534088 506.582336,316.270447 506.610901,305.984100 
	C506.657654,289.162903 506.597961,272.341461 506.639221,255.520264 
	C506.650116,251.077835 505.806854,247.456284 500.327850,247.279556 
	C498.219635,247.211578 497.468262,245.831894 497.366119,243.973587 
	C497.256561,241.979767 497.180878,239.981247 497.179535,237.984741 
	C497.139557,177.694656 496.633636,117.399475 497.278381,57.116615 
	C497.607483,26.345175 474.200806,4.414618 450.943359,2.121859 
	C450.475983,2.075781 450.038391,1.727481 449.293457,1.260090 
	C470.322052,1.000000 491.644073,1.000000 512.983032,1.000000 
	C512.983032,171.564957 512.983032,342.129913 512.983032,513.000000 
	C429.979340,513.000000 346.958344,513.000000 263.468658,513.000000 
z"/>
<path fill="#000000" opacity="1.000000" stroke="none" 
	d="
M437.531342,1.000000 
	C435.679108,2.967494 432.648102,2.596191 429.970428,3.335032 
	C406.347656,9.853248 390.407471,30.466707 390.376831,54.889347 
	C390.342560,82.220619 390.386932,109.552002 390.337616,136.883224 
	C390.333893,138.946350 390.970215,141.177780 389.467346,143.186859 
	C308.495605,82.438187 224.223343,77.231056 136.211349,128.108978 
	C135.171463,123.342690 135.507889,118.721992 135.913651,114.160095 
	C136.159927,111.391129 138.718918,111.844330 140.646225,111.696289 
	C146.434662,111.251717 147.575882,110.127129 147.622284,104.376228 
	C147.684128,96.710594 147.723160,89.043312 147.627029,81.378548 
	C147.586655,78.159767 148.692047,77.128792 152.074402,77.249809 
	C172.162537,77.968544 189.243530,63.322441 191.537994,43.684864 
	C193.833542,24.038218 180.341217,6.063163 160.487503,2.285495 
	C159.521759,2.101739 158.596878,1.703256 157.326477,1.202381 
	C250.354233,1.000000 343.708466,1.000000 437.531342,1.000000 
z"/>
<path fill="#000000" opacity="1.000000" stroke="none" 
	d="
M448.648193,228.293579 
	C437.923584,201.110062 422.670593,177.286392 402.513428,156.647324 
	C400.371735,154.454453 399.569794,152.090790 399.576477,149.059967 
	C399.646729,117.246696 399.499176,85.432640 399.651611,53.619953 
	C399.757965,31.422873 416.915833,13.066137 439.270447,10.772970 
	C461.566772,8.485781 482.639618,23.556129 487.043030,45.160355 
	C487.900574,49.367725 488.238861,53.749649 488.243805,58.051723 
	C488.313782,118.680527 488.269836,179.309464 488.312103,239.938324 
	C488.314941,244.035583 488.383148,247.483459 482.716064,247.815643 
	C479.843079,247.984070 479.294189,251.011841 479.303375,253.696823 
	C479.329041,261.192017 479.343384,268.687531 479.304352,276.182617 
	C479.267822,283.195251 478.084656,284.377502 471.246582,284.451233 
	C469.914276,284.465607 468.557037,284.283875 467.253510,284.477173 
	C462.544952,285.175323 461.127380,282.534241 460.737274,278.490295 
	C459.081360,261.324524 454.610260,244.825821 448.648193,228.293579 
z"/>
<path fill="#000000" opacity="1.000000" stroke="none" 
	d="
M54.539875,329.281158 
	C51.929550,312.930145 52.104321,296.953583 53.915894,281.032013 
	C56.689240,256.657593 63.648975,233.455780 74.989525,211.670273 
	C94.313499,174.548386 122.380188,145.883926 159.293747,126.176857 
	C190.316315,109.614815 223.578110,101.580627 258.768890,102.750641 
	C299.995026,104.121307 337.448639,116.942238 370.788940,141.383636 
	C405.002563,166.465256 429.106781,199.073669 442.695007,239.250595 
	C451.369354,264.898438 454.782227,291.212067 452.591705,318.388367 
	C449.926056,351.459900 440.010742,381.985809 422.161255,409.792389 
	C393.366943,454.649292 353.069611,484.015839 301.345154,497.228333 
	C251.324066,510.005737 203.199799,503.762939 158.149902,479.260529 
	C106.680099,451.266388 73.611549,408.101654 58.737247,351.251465 
	C56.884460,344.170044 55.146854,337.060150 54.539875,329.281158 
M438.656036,271.628693 
	C437.472595,263.029175 435.303070,254.629929 432.653961,246.412613 
	C421.608582,212.150299 402.709686,182.911026 375.046295,159.789856 
	C333.046570,124.686371 284.566010,109.960365 230.181122,116.329048 
	C184.214661,121.711884 145.189178,141.730774 114.248940,176.112686 
	C72.492630,222.513779 57.329353,276.983887 68.083199,338.465332 
	C72.381454,363.039124 81.888260,385.698120 95.667427,406.471741 
	C113.798569,433.806488 137.407547,455.181610 166.586990,470.244263 
	C197.459763,486.181030 230.222000,492.980469 264.972107,490.827148 
	C286.827667,489.472809 307.777832,484.617828 327.733612,475.859894 
	C365.158936,459.435120 394.607758,433.748138 415.299286,398.380371 
	C438.182861,359.265900 445.798431,317.226349 438.656036,271.628693 
z"/>
<path fill="#000000" opacity="1.000000" stroke="none" 
	d="
M124.820953,98.616493 
	C124.809044,80.017944 124.760406,61.881233 124.859802,43.745338 
	C124.915382,33.603714 127.195305,24.316069 135.509216,17.414114 
	C146.028625,8.681222 160.304855,8.347848 171.440155,16.742666 
	C181.738373,24.506420 185.409683,38.756977 180.220200,50.823318 
	C175.011932,62.933319 161.834549,69.987556 148.842468,67.620735 
	C139.802628,65.973900 138.397949,67.167732 138.380081,76.556702 
	C138.367096,83.378662 138.419388,90.201126 138.348175,97.022385 
	C138.323624,99.373360 139.095016,102.708595 135.229370,102.489342 
	C131.582031,102.282471 126.600723,105.281097 124.820953,98.616493 
z"/>
<path fill="#000000" opacity="1.000000" stroke="none" 
	d="
M44.113243,37.674648 
	C61.889629,38.073242 74.115967,50.113304 74.308365,67.430710 
	C74.519371,86.423233 74.166786,105.423126 74.484650,124.412704 
	C74.583618,130.325287 71.081116,129.826889 67.379257,129.837616 
	C63.780205,129.848007 60.344784,130.053589 60.593063,124.565865 
	C60.931591,117.083504 60.675587,109.573807 60.657711,102.075874 
	C60.638927,94.196281 59.107468,92.925621 51.456551,94.396065 
	C36.085789,97.350197 21.954782,88.767563 17.825697,73.969963 
	C12.947805,56.488834 24.611313,40.108517 44.113243,37.674648 
z"/>
<path fill="#000000" opacity="1.000000" stroke="none" 
	d="
M74.013397,411.567291 
	C87.302933,433.262390 103.942245,451.642670 123.360970,467.441345 
	C122.626831,468.353333 122.440025,468.804749 122.228546,468.816620 
	C112.110756,469.384430 101.944908,470.124176 91.909447,468.378601 
	C79.745537,466.262848 71.744995,456.462952 71.639557,444.122131 
	C71.554237,434.136841 71.570007,424.149597 71.698555,414.165222 
	C71.712280,413.098877 70.232300,410.087830 74.013397,411.567291 
z"/>
<path fill="#000000" opacity="1.000000" stroke="none" 
	d="
M497.372040,274.001770 
	C497.364136,284.825226 497.405792,295.149231 497.327484,305.472382 
	C497.286224,310.912231 495.936890,312.264526 490.475983,312.319153 
	C482.650940,312.397461 474.823425,312.242523 466.998810,312.338837 
	C463.796600,312.378204 462.714661,311.060730 462.573792,307.894012 
	C461.977631,294.491760 461.892853,294.495575 475.300140,293.617249 
	C482.255768,293.161621 487.236450,288.700378 487.780365,281.693237 
	C488.320679,274.732788 488.401978,267.726044 488.408722,260.739349 
	C488.412018,257.332886 489.937347,256.576538 492.989105,256.586121 
	C496.207886,256.596222 497.491608,257.806396 497.380310,261.015015 
	C497.236176,265.172424 497.362091,269.339203 497.372040,274.001770 
z"/>
<path fill="#000000" opacity="1.000000" stroke="none" 
	d="
M96.209213,216.293427 
	C125.510292,166.057526 168.342392,135.342667 225.423004,126.000137 
	C271.244598,118.500397 314.086548,128.266922 352.532043,154.155777 
	C393.643036,181.839554 419.599274,220.493423 428.946747,269.277832 
	C438.061279,316.846344 429.336823,361.633942 402.291260,401.871796 
	C372.748749,445.824677 331.398743,472.372772 278.715149,480.320282 
	C239.709503,486.204468 202.678223,479.688263 168.079834,460.815369 
	C126.469017,438.117310 98.209305,403.966370 82.784775,359.173706 
	C80.397133,352.240051 78.714256,345.121857 77.190811,337.951935 
	C76.584312,335.097504 77.350220,333.799103 80.251541,333.789856 
	C80.584633,333.788788 80.917885,333.773621 81.250687,333.757385 
	C91.940208,333.236481 91.547691,333.347748 94.472107,343.650452 
	C112.404274,406.825470 153.370178,446.448578 216.973053,462.627350 
	C227.648483,465.342896 238.584503,466.460693 249.601547,466.620544 
	C251.083221,466.642090 252.634644,466.595947 254.037064,466.183929 
	C255.943390,465.623932 257.123535,464.132385 257.129333,462.090851 
	C257.134613,460.228790 256.000488,458.865601 254.267166,458.416504 
	C252.192108,457.878845 250.025970,457.472473 247.889709,457.423218 
	C178.860046,455.831055 119.515343,407.556641 102.982765,340.232971 
	C102.557701,338.502014 101.882187,336.725098 102.431984,334.849121 
	C104.115410,333.239471 106.215034,333.752472 108.136826,333.751740 
	C160.463379,333.731628 212.789963,333.767975 265.116486,333.718903 
	C268.685211,333.715546 271.226227,334.649109 273.679626,337.579620 
	C288.882172,355.738678 308.348450,362.764740 331.292877,356.813080 
	C354.276703,350.851227 368.050079,335.129913 372.333923,311.921356 
	C376.878723,287.299225 362.972931,262.310486 340.098846,252.208420 
	C316.823944,241.929337 289.920135,248.251923 274.235657,267.983551 
	C271.660126,271.223633 269.007690,272.398834 264.973328,272.389923 
	C212.980270,272.275116 160.986908,272.314026 108.993629,272.297760 
	C101.588142,272.295441 101.295647,272.060028 103.276680,265.029449 
	C120.887817,202.528442 161.932144,164.900635 224.996933,150.969772 
	C232.753204,149.256439 240.758865,148.330978 248.802734,148.614243 
	C250.123825,148.660736 251.503021,148.649887 252.769043,148.327011 
	C255.217163,147.702698 257.149261,146.230881 256.961090,143.480347 
	C256.768677,140.667938 254.583572,139.407944 252.062592,139.482559 
	C245.907028,139.664780 239.720474,139.817596 233.616745,140.560318 
	C203.350647,144.243240 175.969391,155.134262 151.964249,174.071503 
	C122.851227,197.038223 103.748398,226.576630 94.418518,262.450348 
	C94.251114,263.094025 94.178070,263.761871 94.018211,264.407867 
	C92.214020,271.698578 86.052620,274.741455 78.770607,272.050873 
	C76.161827,271.086975 77.031677,269.295044 77.386475,267.528778 
	C80.585701,251.602371 85.753944,236.365494 93.304779,221.959213 
	C94.232689,220.188843 95.122627,218.398544 96.209213,216.293427 
z"/>
<path fill="#000000" opacity="1.000000" stroke="none" 
	d="
M105.245453,324.765869 
	C96.439392,324.657196 88.107475,324.458221 79.777138,324.510742 
	C76.316826,324.532562 74.865929,323.490723 74.506241,319.735687 
	C73.453743,308.748047 73.375504,297.834961 74.463173,286.836090 
	C74.873932,282.682343 76.306641,281.509613 80.254250,281.534546 
	C100.419861,281.661713 120.586800,281.567688 140.753281,281.567810 
	C179.586258,281.567993 218.419266,281.569214 257.252197,281.610535 
	C259.698151,281.613129 262.247406,281.112579 265.181274,282.754456 
	C260.329102,296.171509 260.420563,309.881683 265.577301,324.777039 
	C211.530319,324.777039 158.625275,324.777039 105.245453,324.765869 
M174.209259,318.028046 
	C176.274796,316.663239 176.621597,314.582886 176.617111,312.332855 
	C176.604797,306.169922 176.553787,300.006165 176.633728,293.844208 
	C176.694229,289.181610 174.251343,287.117523 169.861404,287.116516 
	C145.043457,287.110748 120.225517,287.153381 95.407570,287.174103 
	C91.265511,287.177551 89.315399,289.288086 89.326942,293.371307 
	C89.343430,299.201111 89.306458,305.031097 89.340897,310.860748 
	C89.382156,317.841980 90.394249,318.866882 97.562042,318.878143 
	C120.048592,318.913513 142.535233,318.911987 165.021790,318.891144 
	C167.840775,318.888550 170.691071,319.220184 174.209259,318.028046 
M252.683167,300.969513 
	C250.975067,293.489655 246.472443,289.134338 239.723770,288.434113 
	C233.648575,287.803741 227.287704,291.544769 224.777100,297.224670 
	C222.272446,302.891083 223.568939,309.366608 228.207047,313.659149 
	C232.812866,317.921814 238.227875,318.933350 243.942810,316.538177 
	C250.340515,313.856781 253.200119,308.740295 252.683167,300.969513 
z"/>
<path fill="#000000" opacity="1.000000" stroke="none" 
	d="
M359.267029,323.031189 
	C346.626282,345.646606 324.287628,354.648132 301.225403,346.696777 
	C281.856873,340.018921 268.416290,317.914276 270.912750,298.342743 
	C274.127533,273.139801 294.580231,257.425568 314.814697,256.698578 
	C338.440094,255.849747 358.193573,270.960297 362.902435,293.986542 
	C364.894653,303.728394 363.900574,313.521759 359.267029,323.031189 
M337.111267,322.608032 
	C343.202698,316.155609 345.578369,308.513306 344.729889,299.706482 
	C343.266510,284.517303 328.321167,273.036346 313.099091,275.532471 
	C297.354828,278.114197 286.675720,293.479492 290.192932,308.490265 
	C295.328064,330.405914 318.774628,337.786896 337.111267,322.608032 
z"/>
<path fill="#000000" opacity="1.000000" stroke="none" 
	d="
M127.999893,310.243256 
	C119.509331,310.227997 111.517685,310.130280 103.528717,310.235352 
	C99.929718,310.282684 98.267303,308.883331 98.582924,305.209839 
	C98.724930,303.557068 98.691391,301.878479 98.601959,300.218933 
	C98.442039,297.251221 99.891144,295.916595 102.745880,295.916077 
	C122.888306,295.912262 143.030731,295.910034 163.173157,295.920105 
	C165.995895,295.921509 167.220932,297.250488 167.406616,300.203613 
	C168.024368,310.029510 167.954498,310.210205 157.965347,310.225739 
	C148.143555,310.241028 138.321716,310.238312 127.999893,310.243256 
z"/>
<path fill="#000000" opacity="1.000000" stroke="none" 
	d="
M232.873001,302.156860 
	C233.879257,299.141052 235.675629,297.667816 238.524307,297.770752 
	C240.700943,297.849365 242.383835,298.905823 243.100815,300.971069 
	C244.258606,304.306152 243.301407,307.178772 239.814697,308.036224 
	C235.619980,309.067810 233.276611,306.779083 232.873001,302.156860 
z"/>
<path fill="#000000" opacity="1.000000" stroke="none" 
	d="
M323.002747,285.400696 
	C332.521820,289.590332 337.230713,297.441711 335.629395,305.944733 
	C333.858429,315.348633 326.916748,321.439606 317.727844,321.652527 
	C308.995026,321.854858 301.426178,315.985229 299.105225,307.267853 
	C296.198395,296.349854 305.831146,281.093262 323.002747,285.400696 
M321.462769,309.953522 
	C323.002441,308.700867 324.646942,307.554260 326.051971,306.165344 
	C327.423492,304.809570 328.275970,302.931274 327.005157,301.218109 
	C324.085724,297.282471 320.164307,294.536865 315.595306,292.771881 
	C314.416260,292.316376 313.330078,292.828979 312.362579,293.571167 
	C309.501801,295.765656 309.296936,309.954468 312.118378,312.309967 
	C313.663239,313.599701 315.384949,313.939362 317.178223,312.864502 
	C318.453857,312.099884 319.654968,311.210968 321.462769,309.953522 
z"/>
</svg>